<svg viewBox="0 0 436.878 40.806" height="40.806" width="436.878" xmlns="http://www.w3.org/2000/svg">
  <path fill="#fff" d="M31.572,39.352,27.5,30.416H9.438L5.323,39.352H0L18.421,0,36.894,39.352H31.572ZM19.274,12.4a20.509,20.509,0,0,1-.852-2.159,17.546,17.546,0,0,1-.8,2.159L11.342,26.05H25.5L19.274,12.4ZM41.451,39.3V1.354h4.821V35.033h16.11V39.3H41.451Zm26.565.048v-38h4.821v38H68.016Zm36.686,0-10.39-15.66L83.719,39.352H77.8L91.75,19.775,78.851,1.354h5.872l9.736,14.557,9.793-14.557h5.924l-13.2,18.421,13.652,19.576Zm36.02-2.029A14.989,14.989,0,0,1,125.4,22.528,15.021,15.021,0,0,1,140.722,7.694c8.585,0,15.21,6.326,15.21,14.946C155.932,30.771,148.965,37.322,140.722,37.322Zm0-26.357A11.306,11.306,0,0,0,129.2,22.372c0,6.175,5.007,11.71,11.255,11.71a11.559,11.559,0,0,0,.26-23.116Zm20.883,25.79V8.3h15.249v3.2H165.223v8.546h9.412v3.2h-9.412V36.764h-3.613Zm33.545,2.6v-38h8.183c7.33,0,13.15,2.008,13.15,9.736,0,3.566-3.163,6.828-5.972,7.78,3.765.653,9.135,3.817,9.135,9.537,0,6.776-4.821,10.944-14.206,10.944Zm7.88-21.632c5.171,0,8.382-2.311,8.382-6.474s-3.064-5.573-7.179-5.573h-4.267V17.72Zm3.116,17.365c5.721,0,8.382-2.709,8.382-6.625s-3.315-6.426-8.334-6.426H199.97V35.085h6.175Zm39.192,5.02c-11.446,0-20.429-8.836-20.429-19.728S233.892.6,245.337.6s20.277,8.434,20.277,19.927C265.615,31.372,256.328,40.1,245.337,40.1Zm0-35.137a15.077,15.077,0,0,0-15.362,15.21c0,8.23,6.677,15.613,15.007,15.613a15.41,15.41,0,0,0,.351-30.819Zm52.295,34.384V22.186H278V39.352h-4.821v-38H278V17.82h19.628V1.354h4.821v38h-4.821Zm14.5-.048V1.406h20.732V5.673H316.953V16.915h12.8v4.319h-12.8V35.09l17.517-.052V39.3H312.132Zm65.514.048-2.41-22.588c-.052-.45-.052-1.506-.052-1.908-.1.3-.554,1.1-.852,1.7l-13.25,24.246-13.3-24.194a18.3,18.3,0,0,1-.852-1.809,8.358,8.358,0,0,1,.052,1.956l-2.311,22.588H339.55L344.067.3l16.413,29.412a5.939,5.939,0,0,1,.653,1.605,12.989,12.989,0,0,1,.653-1.605L378.149.351l4.57,39h-5.072Zm13.047,0v-38h4.821v38h-4.821Zm40.862,0-4.068-8.936H409.417L405.3,39.352H399.98L418.405,0l18.473,39.352ZM419.257,12.4a20.516,20.516,0,0,1-.852-2.159,17.544,17.544,0,0,1-.8,2.159L411.326,26.05H425.48L419.258,12.4Z" data-name="new logo" id="new_logo"></path>
</svg>
